<?xml version="1.0" standalone="no"?>
<!DOCTYPE svg PUBLIC "-//W3C//DTD SVG 20010904//EN"
 "http://www.w3.org/TR/2001/REC-SVG-20010904/DTD/svg10.dtd">
<svg version="1.0" xmlns="http://www.w3.org/2000/svg"
 width="512.000000pt" height="512.000000pt" viewBox="0 0 512.000000 512.000000"
 preserveAspectRatio="xMidYMid meet">
<metadata>
Created by potrace 1.11, written by Peter Selinger 2001-2013
</metadata>
<g transform="translate(0.000000,512.000000) scale(0.100000,-0.100000)"
fill="#000000" stroke="none">
<path d="M1517 3908 c-4 -46 -7 -197 -7 -336 l0 -252 168 2 167 3 29 228 30
227 163 0 163 0 0 -929 0 -929 -27 -6 c-16 -2 -59 -7 -98 -11 -38 -3 -89 -8
-112 -12 l-43 -5 0 -104 0 -104 635 0 635 0 0 104 0 104 -42 5 c-24 4 -74 9
-113 12 -38 4 -82 9 -97 11 l-28 6 0 929 0 929 165 0 c91 0 165 -3 165 -7 0
-9 49 -382 56 -420 l5 -33 164 0 165 0 0 335 0 335 -1069 0 -1068 0 -6 -82z"/>
<path d="M3217 1364 c-4 -4 -398 -8 -875 -9 -845 0 -868 -1 -907 -20 -73 -37
-97 -133 -46 -184 44 -44 339 -56 931 -37 218 7 338 6 510 -5 426 -26 839 -10
931 37 39 20 55 65 40 115 -16 52 -39 65 -146 84 -100 18 -426 32 -438 19z"/>
</g>
</svg>
